<svg width="292" height="160" viewBox="0 0 292 160" fill="none" xmlns="http://www.w3.org/2000/svg">
<g opacity="0.1">
<path d="M188.65 43.173L221.887 23.2459C222.813 21.7699 223.609 20.1124 223.984 20.2342L224.015 20.1398L262.836 32.7536C265.177 33.5144 266.472 36.06 265.714 38.3918L263.881 44.0324L243.677 37.4675C242.479 37.0784 241.234 37.266 240.241 37.919L199.114 60.055C197.612 60.6123 196.642 61.5511 196.212 62.8745L185.656 95.3624C185.461 95.2644 185.26 95.1987 185.055 95.1321C177.782 92.7691 170.164 94.4397 164.61 98.871C169.647 83.3676 182.824 42.8129 183.019 42.2142C183.193 41.6785 188.947 40.587 188.65 43.173Z" fill="#E1E1E1"/>
<path d="M223.983 20.1633L216.498 43.1275C214.808 48.3268 207.955 50.2805 202.806 48.6076L183.052 42.1891L223.983 20.1633Z" fill="#838C96"/>
<path d="M184.123 98.0144C194.007 101.226 199.441 111.854 196.23 121.738C193.029 131.59 182.385 136.994 172.501 133.783C162.623 130.574 157.189 119.945 160.39 110.093C163.602 100.209 174.245 94.805 184.123 98.0144Z" fill="#838C96"/>
<path d="M185.586 117.965C184.911 118.314 184.082 118.045 183.738 117.364L181.094 112.028L177.233 123.921C176.993 124.66 176.197 125.076 175.474 124.842C174.754 124.608 174.384 123.812 174.624 123.073L178.467 111.21L173.235 113.952C172.897 114.126 172.521 114.146 172.184 114.036C171.849 113.928 171.56 113.692 171.39 113.352C171.043 112.671 171.325 111.803 172.006 111.456L180.231 107.128C180.906 106.779 181.732 107.047 182.072 107.727L186.199 116.067C186.543 116.748 186.261 117.616 185.586 117.965Z" fill="white"/>
<path d="M199.121 122.644C202.348 112.713 198.029 102.137 189.359 97.0619C194.618 80.8772 199.938 64.504 200.06 64.1269C200.244 63.5612 206.19 62.4355 205.892 65.0837L240.23 44.5192C241.186 42.9884 242.007 41.2747 242.397 41.4014L242.428 41.3071L282.544 54.3416C284.97 55.1299 286.309 57.7541 285.523 60.174L255.176 153.574C254.389 155.994 251.763 157.329 249.337 156.541L186.515 136.129C192.292 133.802 197.048 129.024 199.121 122.644Z" fill="#E1E1E1"/>
<path d="M211.745 85.8809L256.816 100.526C257.305 100.684 257.554 101.25 257.381 101.783L256.669 103.977C256.485 104.541 255.951 104.852 255.462 104.693L210.39 90.0487C209.911 89.8929 209.652 89.3238 209.836 88.7597L210.548 86.5661C210.721 86.0334 211.265 85.7251 211.745 85.8809ZM206.104 103.241L251.176 117.886C251.664 118.045 251.914 118.611 251.74 119.144L251.038 121.306C250.865 121.839 250.33 122.15 249.842 121.991L204.77 107.347C204.29 107.191 204.032 106.622 204.205 106.089L204.908 103.927C205.081 103.394 205.624 103.086 206.104 103.241ZM266.729 69.9326L247.723 63.7573C247.234 63.5984 246.963 63.0254 247.136 62.4927L247.839 60.3303C248.012 59.7976 248.568 59.4934 249.057 59.6523L268.063 65.8276C268.564 65.9905 268.826 66.5605 268.653 67.0932L267.95 69.2555C267.777 69.7883 267.23 70.0955 266.729 69.9326ZM261.078 87.3245L242.072 81.1492C241.583 80.9903 241.322 80.3861 241.495 79.8534L242.208 77.6598C242.381 77.1271 242.937 76.8226 243.426 76.9814L262.432 83.1568C262.933 83.3197 263.195 83.8899 263.022 84.4227L262.309 86.6162C262.136 87.149 261.579 87.4874 261.078 87.3245ZM205.693 124.137L244.995 136.907C245.484 137.066 245.723 137.664 245.55 138.196L244.837 140.39C244.664 140.923 244.13 141.234 243.641 141.075L204.338 128.305C203.862 128.15 203.603 127.581 203.777 127.049L204.489 124.855C204.662 124.322 205.216 123.983 205.693 124.137Z" fill="#838C96"/>
<path d="M242.396 41.3323L234.654 65.0834C232.908 70.4573 225.828 72.4652 220.511 70.7374L200.096 64.1043L242.396 41.3323Z" fill="#838C96"/>
</g>
<g opacity="0.1">
<path d="M103.35 33.173L70.1128 13.2459C69.1873 11.7699 68.3909 10.1124 68.0159 10.2342L67.9852 10.1398L29.1638 22.7536C26.8225 23.5144 25.5282 26.06 26.2858 28.3918L28.1186 34.0324L48.3232 27.4675C49.5207 27.0784 50.7661 27.266 51.7586 27.919L92.8864 50.055C94.3878 50.6123 95.3583 51.5511 95.7883 52.8745L106.344 85.3624C106.539 85.2644 106.74 85.1987 106.945 85.1321C114.218 82.7691 121.836 84.4397 127.39 88.871C122.353 73.3676 109.176 32.8129 108.981 32.2142C108.807 31.6785 103.053 30.587 103.35 33.173Z" fill="#E1E1E1"/>
<path d="M68.0166 10.1633L75.5025 33.1275C77.1918 38.3268 84.0451 40.2805 89.1939 38.6076L108.948 32.1891L68.0166 10.1633Z" fill="#838C96"/>
<path d="M107.877 88.0144C97.9933 91.2259 92.559 101.854 95.7704 111.738C98.9714 121.59 109.615 126.994 119.499 123.783C129.377 120.574 134.811 109.945 131.61 100.093C128.398 90.2094 117.755 84.805 107.877 88.0144Z" fill="#838C96"/>
<path d="M106.414 107.965C107.089 108.314 107.918 108.045 108.262 107.364L110.906 102.028L114.767 113.921C115.007 114.66 115.803 115.076 116.526 114.842C117.246 114.608 117.616 113.812 117.376 113.073L113.533 101.21L118.765 103.952C119.103 104.126 119.479 104.146 119.816 104.036C120.151 103.928 120.44 103.692 120.61 103.352C120.957 102.671 120.675 101.803 119.994 101.456L111.769 97.1283C111.094 96.779 110.268 97.0474 109.928 97.7267L105.801 106.067C105.457 106.748 105.739 107.616 106.414 107.965Z" fill="white"/>
<path d="M92.8792 112.644C89.6525 102.713 93.9712 92.1374 102.641 87.0619C97.3824 70.8772 92.0625 54.504 91.9399 54.1269C91.7561 53.5612 85.8104 52.4355 86.1079 55.0837L51.7697 34.5192C50.8137 32.9884 49.9927 31.2747 49.603 31.4014L49.5724 31.3071L9.45639 44.3416C7.03026 45.1299 5.69061 47.7541 6.47686 50.174L36.8243 143.574C37.6106 145.994 40.2369 147.329 42.663 146.541L105.485 126.129C99.7081 123.802 94.9521 119.024 92.8792 112.644Z" fill="#E1E1E1"/>
<path d="M80.2554 75.8809L35.1837 90.5256C34.6949 90.6845 34.4457 91.2503 34.6188 91.783L35.3315 93.9766C35.5148 94.5407 36.0491 94.8522 36.5379 94.6933L81.6096 80.0487C82.0891 79.8929 82.3476 79.3238 82.1643 78.7597L81.4516 76.5661C81.2785 76.0334 80.7349 75.7251 80.2554 75.8809ZM85.8962 93.2413L40.8245 107.886C40.3356 108.045 40.0865 108.611 40.2596 109.144L40.9621 111.306C41.1352 111.839 41.6695 112.15 42.1584 111.991L87.2301 97.3466C87.7095 97.1908 87.968 96.6216 87.7949 96.0889L87.0924 93.9268C86.9193 93.3941 86.3756 93.0855 85.8962 93.2413ZM25.2712 59.9326L44.2769 53.7573C44.7658 53.5984 45.0369 53.0254 44.8638 52.4927L44.1612 50.3303C43.9881 49.7976 43.432 49.4934 42.9431 49.6523L23.9374 55.8276C23.436 55.9905 23.1742 56.5605 23.3473 57.0932L24.0499 59.2555C24.223 59.7883 24.7698 60.0955 25.2712 59.9326ZM30.9222 77.3245L49.9279 71.1492C50.4167 70.9903 50.6777 70.3861 50.5046 69.8534L49.7919 67.6598C49.6188 67.1271 49.0626 66.8226 48.5737 66.9814L29.568 73.1568C29.0666 73.3197 28.8049 73.8899 28.978 74.4227L29.6908 76.6162C29.8638 77.149 30.4208 77.4874 30.9222 77.3245ZM86.3075 114.137L47.0049 126.907C46.5161 127.066 46.2771 127.664 46.4502 128.196L47.1629 130.39C47.336 130.923 47.8702 131.234 48.3591 131.075L87.6616 118.305C88.138 118.15 88.3965 117.581 88.2234 117.049L87.5107 114.855C87.3376 114.322 86.7838 113.983 86.3075 114.137Z" fill="#838C96"/>
<path d="M49.6042 31.3323L57.3456 55.0834C59.0917 60.4573 66.1717 62.4652 71.4891 60.7374L91.9038 54.1043L49.6042 31.3323Z" fill="#838C96"/>
</g>
<path d="M191.594 45.8326L166.142 16.61C165.717 14.9202 165.472 13.0977 165.078 13.0977V12.9984H124.259C121.797 12.9984 119.779 15.0195 119.779 17.4713V23.4022H141.024C142.283 23.4022 143.409 23.9654 144.151 24.8931L176.426 58.6549C177.682 59.6489 178.314 60.8416 178.314 62.2332V96.393C178.53 96.3598 178.742 96.3597 178.957 96.3597C186.604 96.3597 193.333 100.303 197.246 106.233C197.246 89.9322 197.246 47.2904 197.246 46.6609C197.246 46.0977 192.111 43.2814 191.594 45.8326Z" fill="#E1E1E1"/>
<path d="M165.102 13.0307L165.125 37.1842C165.125 42.6511 171.039 46.627 176.453 46.627H197.223L165.102 13.0307Z" fill="#838C96"/>
<path d="M178.955 99.3898C168.562 99.3898 160.109 107.819 160.109 118.211C160.109 128.57 168.562 136.999 178.955 136.999C189.34 136.999 197.793 128.57 197.793 118.211C197.793 107.819 189.34 99.3898 178.955 99.3898Z" fill="#838C96"/>
<path d="M171.398 117.911C171.932 118.452 172.804 118.452 173.341 117.911L177.505 113.653L177.501 126.157C177.501 126.934 178.13 127.576 178.89 127.576C179.647 127.576 180.245 126.934 180.245 126.157L180.256 113.687L184.385 117.911C184.652 118.182 185.003 118.317 185.358 118.317C185.71 118.317 186.058 118.182 186.325 117.911C186.866 117.371 186.866 116.458 186.325 115.917L179.84 109.26C179.306 108.719 178.437 108.719 177.903 109.26L171.402 115.917C170.864 116.458 170.864 117.371 171.398 117.911Z" fill="white"/>
<path d="M157.078 118.179C157.078 107.737 164.454 99.0135 174.268 96.8657C174.268 79.8481 174.268 62.6323 174.268 62.2358C174.268 61.641 168.961 58.733 168.425 61.3435L142.123 31.1745C141.686 29.4232 141.435 27.5397 141.025 27.5397V27.4406H98.845C96.294 27.4406 94.209 29.5224 94.209 32.0667V130.273C94.209 132.818 96.294 134.899 98.845 134.899H164.9C160.125 130.901 157.078 124.887 157.078 118.179Z" fill="#E1E1E1"/>
<path d="M156.432 79.3138H109.041C108.527 79.3138 108.115 79.775 108.115 80.3351V82.6416C108.115 83.2347 108.527 83.696 109.041 83.696H156.432C156.936 83.696 157.358 83.2347 157.358 82.6416V80.3351C157.358 79.775 156.936 79.3138 156.432 79.3138ZM156.432 97.5676H109.041C108.527 97.5676 108.115 98.0291 108.115 98.5892V100.863C108.115 101.423 108.527 101.884 109.041 101.884H156.432C156.936 101.884 157.358 101.423 157.358 100.863V98.5892C157.358 98.0291 156.936 97.5676 156.432 97.5676ZM109.068 47.155H129.051C129.565 47.155 130 46.6938 130 46.1337V43.86C130 43.2999 129.565 42.8387 129.051 42.8387H109.068C108.54 42.8387 108.115 43.2999 108.115 43.86V46.1337C108.115 46.6938 108.54 47.155 109.068 47.155ZM109.068 65.4419H129.051C129.565 65.4419 130 64.9479 130 64.3878V62.0813C130 61.5212 129.565 61.0597 129.051 61.0597H109.068C108.54 61.0597 108.115 61.5212 108.115 62.0813V64.3878C108.115 64.9479 108.54 65.4419 109.068 65.4419ZM150.366 117.568H109.041C108.527 117.568 108.115 118.062 108.115 118.622V120.929C108.115 121.489 108.527 121.95 109.041 121.95H150.366C150.867 121.95 151.289 121.489 151.289 120.929V118.622C151.289 118.062 150.867 117.568 150.366 117.568Z" fill="#838C96"/>
<path d="M141.049 27.4743L141.072 52.4552C141.072 58.1057 147.185 62.2031 152.776 62.2031H174.241L141.049 27.4743Z" fill="#838C96"/>
</svg>
