<svg width="44" height="44" viewBox="0 0 44 44" fill="none" xmlns="http://www.w3.org/2000/svg">
<rect width="44" height="44" rx="8" fill="#05B917"/>
<path d="M28.0001 17.16C27.9401 17.15 27.8701 17.15 27.8101 17.16C26.4301 17.11 25.3301 15.98 25.3301 14.58C25.3301 13.15 26.4801 12 27.9101 12C29.3401 12 30.4901 13.16 30.4901 14.58C30.4801 15.98 29.3801 17.11 28.0001 17.16Z" stroke="white" stroke-width="1.5" stroke-linecap="round" stroke-linejoin="round"/>
<path d="M26.9695 24.4402C28.3395 24.6702 29.8495 24.4302 30.9095 23.7202C32.3195 22.7802 32.3195 21.2402 30.9095 20.3002C29.8395 19.5902 28.3095 19.3502 26.9395 19.5902" stroke="white" stroke-width="1.5" stroke-linecap="round" stroke-linejoin="round"/>
<path d="M15.9685 17.16C16.0285 17.15 16.0985 17.15 16.1585 17.16C17.5385 17.11 18.6385 15.98 18.6385 14.58C18.6385 13.15 17.4885 12 16.0585 12C14.6285 12 13.4785 13.16 13.4785 14.58C13.4885 15.98 14.5885 17.11 15.9685 17.16Z" stroke="white" stroke-width="1.5" stroke-linecap="round" stroke-linejoin="round"/>
<path d="M16.9995 24.4402C15.6295 24.6702 14.1195 24.4302 13.0595 23.7202C11.6495 22.7802 11.6495 21.2402 13.0595 20.3002C14.1295 19.5902 15.6595 19.3502 17.0295 19.5902" stroke="white" stroke-width="1.5" stroke-linecap="round" stroke-linejoin="round"/>
<path d="M22.0001 24.6302C21.9401 24.6202 21.8701 24.6202 21.8101 24.6302C20.4301 24.5802 19.3301 23.4502 19.3301 22.0502C19.3301 20.6202 20.4801 19.4702 21.9101 19.4702C23.3401 19.4702 24.4901 20.6302 24.4901 22.0502C24.4801 23.4502 23.3801 24.5902 22.0001 24.6302Z" stroke="white" stroke-width="1.5" stroke-linecap="round" stroke-linejoin="round"/>
<path d="M19.0907 27.7804C17.6807 28.7204 17.6807 30.2603 19.0907 31.2003C20.6907 32.2703 23.3107 32.2703 24.9107 31.2003C26.3207 30.2603 26.3207 28.7204 24.9107 27.7804C23.3207 26.7204 20.6907 26.7204 19.0907 27.7804Z" stroke="white" stroke-width="1.5" stroke-linecap="round" stroke-linejoin="round"/>
</svg>
