<svg width="44" height="44" viewBox="0 0 44 44" fill="none" xmlns="http://www.w3.org/2000/svg">
<rect width="44" height="44" rx="8" fill="#FF8A14"/>
<path d="M31.0802 18.58V25.42C31.0802 26.54 30.4802 27.58 29.5102 28.15L23.5702 31.58C22.6002 32.14 21.4002 32.14 20.4202 31.58L14.4802 28.15C13.5102 27.59 12.9102 26.55 12.9102 25.42V18.58C12.9102 17.46 13.5102 16.42 14.4802 15.85L20.4202 12.42C21.3902 11.86 22.5902 11.86 23.5702 12.42L29.5102 15.85C30.4802 16.42 31.0802 17.45 31.0802 18.58Z" stroke="white" stroke-width="1.5" stroke-linecap="round" stroke-linejoin="round"/>
<path d="M21.9999 20.9998C23.2867 20.9998 24.3299 19.9566 24.3299 18.6698C24.3299 17.383 23.2867 16.3398 21.9999 16.3398C20.7131 16.3398 19.6699 17.383 19.6699 18.6698C19.6699 19.9566 20.7131 20.9998 21.9999 20.9998Z" stroke="white" stroke-width="1.5" stroke-linecap="round" stroke-linejoin="round"/>
<path d="M26 26.6599C26 24.8599 24.21 23.3999 22 23.3999C19.79 23.3999 18 24.8599 18 26.6599" stroke="white" stroke-width="1.5" stroke-linecap="round" stroke-linejoin="round"/>
</svg>
