<svg width="156" height="150" viewBox="0 0 156 150" fill="none" xmlns="http://www.w3.org/2000/svg">
<circle cx="81.3333" cy="75.0001" r="58.3333" fill="url(#paint0_linear_14253_6922)"/>
<circle cx="17.1673" cy="8.33333" r="8.33333" fill="#336699"/>
<circle cx="89.2494" cy="3.75008" r="2.08333" fill="#336699"/>
<circle cx="8.83268" cy="110.833" r="4.16667" fill="#336699"/>
<circle cx="149.25" cy="22.9167" r="6.25" fill="#336699"/>
<circle cx="138.417" cy="133.75" r="2.08333" fill="#336699"/>
<circle cx="142.583" cy="92.0833" r="2.08333" fill="#336699"/>
<circle cx="102.167" cy="142.5" r="0.833333" fill="#336699"/>
<circle cx="52.5827" cy="147.083" r="2.91667" fill="#336699"/>
<circle cx="1.33333" cy="62.5001" r="0.833333" fill="#336699"/>
<path d="M92.184 49.9995C100.659 49.9995 106.334 55.9495 106.334 64.7995V85.227C106.334 94.0495 100.659 99.9995 92.184 99.9995H70.509C62.034 99.9995 56.334 94.0495 56.334 85.227V64.7995C56.334 55.9495 62.034 49.9995 70.509 49.9995H92.184ZM91.784 67.4995C90.934 66.6495 89.534 66.6495 88.684 67.4995L78.359 77.8245L73.984 73.4495C73.134 72.5995 71.734 72.5995 70.884 73.4495C70.034 74.2995 70.034 75.6745 70.884 76.5495L76.834 82.4745C77.259 82.8995 77.809 83.0995 78.359 83.0995C78.934 83.0995 79.484 82.8995 79.909 82.4745L91.784 70.5995C92.634 69.7495 92.634 68.3745 91.784 67.4995Z" fill="white"/>
<defs>
<linearGradient id="paint0_linear_14253_6922" x1="81.3333" y1="16.6667" x2="81.3333" y2="133.333" gradientUnits="userSpaceOnUse">
<stop stop-color="#336699"/>
<stop offset="1" stop-color="#002A55"/>
</linearGradient>
</defs>
</svg>
