<svg width="18" height="22" viewBox="0 0 18 22" fill="none" xmlns="http://www.w3.org/2000/svg">
<path d="M5.86523 19.2734H12.1357C12.164 19.2734 12.1922 19.281 12.2168 19.2949C12.2412 19.3088 12.2618 19.3285 12.2764 19.3525C12.2909 19.3767 12.299 19.4044 12.2998 19.4326C12.3006 19.4607 12.2943 19.4888 12.2812 19.5137C11.9623 20.1065 11.4888 20.6027 10.9111 20.9482C10.3335 21.2937 9.67301 21.476 9 21.4766C8.32695 21.4759 7.66647 21.2928 7.08887 20.9473C6.51137 20.6018 6.03758 20.1063 5.71875 19.5137C5.70572 19.4888 5.69939 19.4607 5.7002 19.4326C5.70104 19.4044 5.70902 19.3767 5.72363 19.3525C5.73829 19.3283 5.75948 19.3088 5.78418 19.2949C5.79663 19.2879 5.80953 19.2819 5.82324 19.2783L5.86523 19.2734ZM9 0.523438C10.245 0.523489 11.3519 1.42837 11.7568 2.78418L11.7793 2.77734L11.7549 2.78516L11.7617 2.79297C11.7743 2.80764 11.7897 2.81969 11.8066 2.8291L11.8057 2.83008L11.8086 2.83105C12.9379 3.29568 13.7941 3.92372 14.4268 4.75098C15.2846 5.87075 15.7207 7.36526 15.7207 9.18945C15.7207 10.9558 15.8769 12.0301 16.1631 12.8193C16.4495 13.6091 16.8663 14.1128 17.3818 14.7363C17.4559 14.8257 17.5333 14.9208 17.6104 15.0137C17.8085 15.253 17.9339 15.5442 17.9717 15.8525C18.0094 16.161 17.9578 16.4738 17.8232 16.7539C17.5372 17.3519 16.9338 17.7255 16.2422 17.7256H1.7627C1.11109 17.7255 0.536635 17.3965 0.232422 16.8604L0.174805 16.751L0.128906 16.6445C0.0298522 16.3929 -0.00494451 16.1202 0.0283203 15.8506C0.066392 15.5426 0.191576 15.2516 0.389648 15.0127C0.467376 14.9172 0.544107 14.8249 0.619141 14.7344C1.13504 14.1116 1.5516 13.609 1.83789 12.8193C2.12399 12.0301 2.27929 10.9555 2.2793 9.18848C2.2793 7.58866 2.59966 6.26971 3.24805 5.21582C3.8965 4.16206 4.87481 3.37053 6.19238 2.82812L6.19434 2.82715C6.21078 2.81796 6.22572 2.80603 6.23828 2.79199L6.24023 2.79395L6.24316 2.7832C6.64807 1.42869 7.75492 0.523438 9 0.523438Z" fill="#838C96" stroke="#838C96" stroke-width="0.046875"/>
</svg>
