<svg width="20" height="20" viewBox="0 0 20 20" fill="none" xmlns="http://www.w3.org/2000/svg">
<path d="M13.9592 2.9665V1.6665C13.9592 1.32484 13.6758 1.0415 13.3342 1.0415C12.9925 1.0415 12.7092 1.32484 12.7092 1.6665V2.9165H7.29251V1.6665C7.29251 1.32484 7.00918 1.0415 6.66751 1.0415C6.32584 1.0415 6.04251 1.32484 6.04251 1.6665V2.9665C3.79251 3.17484 2.70084 4.5165 2.53418 6.50817C2.51751 6.74984 2.71751 6.94984 2.95084 6.94984H17.0508C17.2925 6.94984 17.4925 6.7415 17.4675 6.50817C17.3008 4.5165 16.2092 3.17484 13.9592 2.9665Z" fill="black"/>
<path d="M16.6667 8.19971H3.33333C2.875 8.19971 2.5 8.57471 2.5 9.03304V14.1664C2.5 16.6664 3.75 18.333 6.66667 18.333H13.3333C16.25 18.333 17.5 16.6664 17.5 14.1664V9.03304C17.5 8.57471 17.125 8.19971 16.6667 8.19971ZM7.675 15.1747C7.63333 15.208 7.59167 15.2497 7.55 15.2747C7.5 15.308 7.45 15.333 7.4 15.3497C7.35 15.3747 7.3 15.3914 7.25 15.3997C7.19167 15.408 7.14167 15.4164 7.08333 15.4164C6.975 15.4164 6.86667 15.3914 6.76667 15.3497C6.65833 15.308 6.575 15.2497 6.49167 15.1747C6.34167 15.0164 6.25 14.7997 6.25 14.583C6.25 14.3664 6.34167 14.1497 6.49167 13.9914C6.575 13.9164 6.65833 13.858 6.76667 13.8164C6.91667 13.7497 7.08333 13.733 7.25 13.7664C7.3 13.7747 7.35 13.7914 7.4 13.8164C7.45 13.833 7.5 13.858 7.55 13.8914C7.59167 13.9247 7.63333 13.958 7.675 13.9914C7.825 14.1497 7.91667 14.3664 7.91667 14.583C7.91667 14.7997 7.825 15.0164 7.675 15.1747ZM7.675 12.258C7.51667 12.408 7.3 12.4997 7.08333 12.4997C6.86667 12.4997 6.65 12.408 6.49167 12.258C6.34167 12.0997 6.25 11.883 6.25 11.6664C6.25 11.4497 6.34167 11.233 6.49167 11.0747C6.725 10.8414 7.09167 10.7664 7.4 10.8997C7.50833 10.9414 7.6 10.9997 7.675 11.0747C7.825 11.233 7.91667 11.4497 7.91667 11.6664C7.91667 11.883 7.825 12.0997 7.675 12.258ZM10.5917 15.1747C10.4333 15.3247 10.2167 15.4164 10 15.4164C9.78333 15.4164 9.56667 15.3247 9.40833 15.1747C9.25833 15.0164 9.16667 14.7997 9.16667 14.583C9.16667 14.3664 9.25833 14.1497 9.40833 13.9914C9.71667 13.683 10.2833 13.683 10.5917 13.9914C10.7417 14.1497 10.8333 14.3664 10.8333 14.583C10.8333 14.7997 10.7417 15.0164 10.5917 15.1747ZM10.5917 12.258C10.55 12.2914 10.5083 12.3247 10.4667 12.358C10.4167 12.3914 10.3667 12.4164 10.3167 12.433C10.2667 12.458 10.2167 12.4747 10.1667 12.483C10.1083 12.4914 10.0583 12.4997 10 12.4997C9.78333 12.4997 9.56667 12.408 9.40833 12.258C9.25833 12.0997 9.16667 11.883 9.16667 11.6664C9.16667 11.4497 9.25833 11.233 9.40833 11.0747C9.48333 10.9997 9.575 10.9414 9.68333 10.8997C9.99167 10.7664 10.3583 10.8414 10.5917 11.0747C10.7417 11.233 10.8333 11.4497 10.8333 11.6664C10.8333 11.883 10.7417 12.0997 10.5917 12.258ZM13.5083 15.1747C13.35 15.3247 13.1333 15.4164 12.9167 15.4164C12.7 15.4164 12.4833 15.3247 12.325 15.1747C12.175 15.0164 12.0833 14.7997 12.0833 14.583C12.0833 14.3664 12.175 14.1497 12.325 13.9914C12.6333 13.683 13.2 13.683 13.5083 13.9914C13.6583 14.1497 13.75 14.3664 13.75 14.583C13.75 14.7997 13.6583 15.0164 13.5083 15.1747ZM13.5083 12.258C13.4667 12.2914 13.425 12.3247 13.3833 12.358C13.3333 12.3914 13.2833 12.4164 13.2333 12.433C13.1833 12.458 13.1333 12.4747 13.0833 12.483C13.025 12.4914 12.9667 12.4997 12.9167 12.4997C12.7 12.4997 12.4833 12.408 12.325 12.258C12.175 12.0997 12.0833 11.883 12.0833 11.6664C12.0833 11.4497 12.175 11.233 12.325 11.0747C12.4083 10.9997 12.4917 10.9414 12.6 10.8997C12.75 10.833 12.9167 10.8164 13.0833 10.8497C13.1333 10.858 13.1833 10.8747 13.2333 10.8997C13.2833 10.9164 13.3333 10.9414 13.3833 10.9747C13.425 11.008 13.4667 11.0414 13.5083 11.0747C13.6583 11.233 13.75 11.4497 13.75 11.6664C13.75 11.883 13.6583 12.0997 13.5083 12.258Z" fill="black"/>
</svg>
