<svg width="44" height="44" viewBox="0 0 44 44" fill="none" xmlns="http://www.w3.org/2000/svg">
<rect width="44" height="44" rx="8" fill="#007FFF"/>
<path d="M16.73 29.7C17.55 28.82 18.8 28.89 19.52 29.85L20.53 31.2C21.34 32.27 22.65 32.27 23.46 31.2L24.47 29.85C25.19 28.89 26.44 28.82 27.26 29.7C29.04 31.6 30.49 30.97 30.49 28.31V17.04C30.5 13.01 29.56 12 25.78 12H18.22C14.44 12 13.5 13.01 13.5 17.04V28.3C13.5 30.97 14.96 31.59 16.73 29.7Z" stroke="white" stroke-width="1.5" stroke-linecap="round" stroke-linejoin="round"/>
<path d="M18 17H26" stroke="white" stroke-width="1.5" stroke-linecap="round" stroke-linejoin="round"/>
<path d="M19 21H25" stroke="white" stroke-width="1.5" stroke-linecap="round" stroke-linejoin="round"/>
</svg>
