<svg width="20" height="20" viewBox="0 0 20 20" fill="none" xmlns="http://www.w3.org/2000/svg">
<path d="M13.1493 1.6665H6.84935C3.69935 1.6665 2.91602 2.50817 2.91602 5.8665V15.2498C2.91602 17.4665 4.13268 17.9915 5.60768 16.4082L5.61602 16.3998C6.29935 15.6748 7.34102 15.7332 7.93268 16.5248L8.77435 17.6498C9.44935 18.5415 10.541 18.5415 11.216 17.6498L12.0577 16.5248C12.6577 15.7248 13.6993 15.6665 14.3827 16.3998C15.866 17.9832 17.0743 17.4582 17.0743 15.2415V5.8665C17.0827 2.50817 16.2993 1.6665 13.1493 1.6665ZM12.4993 9.7915H7.49935C7.15768 9.7915 6.87435 9.50817 6.87435 9.1665C6.87435 8.82484 7.15768 8.5415 7.49935 8.5415H12.4993C12.841 8.5415 13.1243 8.82484 13.1243 9.1665C13.1243 9.50817 12.841 9.7915 12.4993 9.7915ZM13.3327 6.45817H6.66602C6.32435 6.45817 6.04102 6.17484 6.04102 5.83317C6.04102 5.4915 6.32435 5.20817 6.66602 5.20817H13.3327C13.6743 5.20817 13.9577 5.4915 13.9577 5.83317C13.9577 6.17484 13.6743 6.45817 13.3327 6.45817Z" fill="black"/>
</svg>
