<svg width="20" height="20" viewBox="0 0 20 20" fill="none" xmlns="http://www.w3.org/2000/svg">
<path d="M2.59194 10.9258H8.1475C8.39307 10.9258 8.62858 10.8282 8.80223 10.6546C8.97587 10.4809 9.07342 10.2454 9.07342 9.99984V2.59243C9.07342 2.34686 8.97587 2.11135 8.80223 1.9377C8.62858 1.76406 8.39307 1.6665 8.1475 1.6665H2.59194C2.34637 1.6665 2.11086 1.76406 1.93721 1.9377C1.76357 2.11135 1.66602 2.34686 1.66602 2.59243V9.99984C1.66602 10.2454 1.76357 10.4809 1.93721 10.6546C2.11086 10.8282 2.34637 10.9258 2.59194 10.9258ZM1.66602 17.4072C1.66602 17.6528 1.76357 17.8883 1.93721 18.062C2.11086 18.2356 2.34637 18.3332 2.59194 18.3332H8.1475C8.39307 18.3332 8.62858 18.2356 8.80223 18.062C8.97587 17.8883 9.07342 17.6528 9.07342 17.4072V13.7035C9.07342 13.458 8.97587 13.2225 8.80223 13.0488C8.62858 12.8752 8.39307 12.7776 8.1475 12.7776H2.59194C2.34637 12.7776 2.11086 12.8752 1.93721 13.0488C1.76357 13.2225 1.66602 13.458 1.66602 13.7035V17.4072ZM10.9253 17.4072C10.9253 17.6528 11.0228 17.8883 11.1965 18.062C11.3701 18.2356 11.6056 18.3332 11.8512 18.3332H17.4068C17.6523 18.3332 17.8878 18.2356 18.0615 18.062C18.2351 17.8883 18.3327 17.6528 18.3327 17.4072V10.9258C18.3327 10.6802 18.2351 10.4447 18.0615 10.271C17.8878 10.0974 17.6523 9.99984 17.4068 9.99984H11.8512C11.6056 9.99984 11.3701 10.0974 11.1965 10.271C11.0228 10.4447 10.9253 10.6802 10.9253 10.9258V17.4072ZM11.8512 8.14799H17.4068C17.6523 8.14799 17.8878 8.05043 18.0615 7.87679C18.2351 7.70314 18.3327 7.46763 18.3327 7.22206V2.59243C18.3327 2.34686 18.2351 2.11135 18.0615 1.9377C17.8878 1.76406 17.6523 1.6665 17.4068 1.6665H11.8512C11.6056 1.6665 11.3701 1.76406 11.1965 1.9377C11.0228 2.11135 10.9253 2.34686 10.9253 2.59243V7.22206C10.9253 7.46763 11.0228 7.70314 11.1965 7.87679C11.3701 8.05043 11.6056 8.14799 11.8512 8.14799Z" fill="#336699"/>
</svg>
