<svg width="25" height="24" viewBox="0 0 25 24" fill="none" xmlns="http://www.w3.org/2000/svg">
<path d="M11.5 2H9.5C4.5 2 2.5 4 2.5 9V15C2.5 20 4.5 22 9.5 22H15.5C20.5 22 22.5 20 22.5 15V13" stroke="#838C96" stroke-width="1.5" stroke-linecap="round" stroke-linejoin="round"/>
<path d="M16.5399 3.01976L8.65988 10.8998C8.35988 11.1998 8.05988 11.7898 7.99988 12.2198L7.56988 15.2298C7.40988 16.3198 8.17988 17.0798 9.26988 16.9298L12.2799 16.4998C12.6999 16.4398 13.2899 16.1398 13.5999 15.8398L21.4799 7.95976C22.8399 6.59976 23.4799 5.01976 21.4799 3.01976C19.4799 1.01976 17.8999 1.65976 16.5399 3.01976Z" stroke="#838C96" stroke-width="1.5" stroke-miterlimit="10" stroke-linecap="round" stroke-linejoin="round"/>
<path d="M15.4102 4.1499C16.0802 6.5399 17.9502 8.4099 20.3502 9.0899" stroke="#838C96" stroke-width="1.5" stroke-miterlimit="10" stroke-linecap="round" stroke-linejoin="round"/>
</svg>
