<svg width="20" height="20" viewBox="0 0 20 20" fill="none" xmlns="http://www.w3.org/2000/svg">
<path fill-rule="evenodd" clip-rule="evenodd" d="M11.966 4.04746V1.6665H8.79141V4.04746H6.41046V7.22206H8.79141V9.60301H11.966V7.22206H14.347V4.04746H11.966ZM16.3565 11.0522C16.724 11.5149 16.9755 12.0403 17.0367 12.5982C17.1184 13.3356 16.862 14.0506 16.2652 14.649L16.2636 14.6498L16.2597 14.6538L16.2438 14.6697L16.1851 14.7284L15.9843 14.9292L15.4628 15.4506L14.6216 14.6086L15.1422 14.0871L15.343 13.8871L15.4017 13.8284L15.4176 13.8125L15.4216 13.8086L15.4224 13.807C15.7874 13.4419 15.8922 13.076 15.8533 12.73C15.8128 12.3617 15.5993 11.9387 15.1827 11.5221L11.9898 14.7141V18.3332H15.9597L19.1343 15.1586V6.42841C17.547 6.42841 16.3565 7.22206 16.3565 8.80936V11.0522ZM8.81125 14.7149L5.6184 11.5221C5.20094 11.9387 4.98824 12.3617 4.94697 12.73C4.90887 13.076 5.01284 13.4419 5.37792 13.807L5.37871 13.8086L5.38348 13.8125L5.39935 13.8284L5.45808 13.8871L5.65808 14.0871L6.17951 14.6086L5.33824 15.4498L4.81681 14.9292L4.61602 14.7292L4.55729 14.6697L4.54141 14.6538L4.53744 14.6498L4.53586 14.649C3.93824 14.0514 3.68189 13.3356 3.76363 12.5982C3.82554 12.0403 4.07713 11.5149 4.44379 11.0522V8.80936C4.44379 7.22206 3.25332 6.42841 1.66602 6.42841V15.1586L4.84062 18.3332H8.81046L8.81125 14.7149Z" fill="black"/>
</svg>
