<svg width="18" height="19" viewBox="0 0 18 19" fill="none" xmlns="http://www.w3.org/2000/svg">
<path d="M9.0013 0.666016C13.6038 0.666016 17.3346 4.39685 17.3346 8.99935C17.3346 13.6018 13.6038 17.3327 9.0013 17.3327C4.3988 17.3327 0.667969 13.6018 0.667969 8.99935C0.667969 4.39685 4.3988 0.666016 9.0013 0.666016ZM9.0013 12.3327C8.78029 12.3327 8.56833 12.4205 8.41205 12.5768C8.25577 12.733 8.16797 12.945 8.16797 13.166C8.16797 13.387 8.25577 13.599 8.41205 13.7553C8.56833 13.9116 8.78029 13.9993 9.0013 13.9993C9.22232 13.9993 9.43428 13.9116 9.59056 13.7553C9.74684 13.599 9.83463 13.387 9.83463 13.166C9.83463 12.945 9.74684 12.733 9.59056 12.5768C9.43428 12.4205 9.22232 12.3327 9.0013 12.3327ZM9.0013 4.41602C8.20013 4.41602 7.43177 4.73428 6.86525 5.3008C6.29873 5.86731 5.98047 6.63567 5.98047 7.43685C5.98047 7.65786 6.06827 7.86982 6.22455 8.0261C6.38083 8.18238 6.59279 8.27018 6.8138 8.27018C7.03482 8.27018 7.24678 8.18238 7.40306 8.0261C7.55934 7.86982 7.64714 7.65786 7.64714 7.43685C7.64741 7.19105 7.71459 6.94995 7.84145 6.73942C7.96833 6.52889 8.15011 6.35686 8.36731 6.24178C8.58451 6.1267 8.82893 6.07291 9.07438 6.08617C9.31982 6.09944 9.55703 6.17926 9.76056 6.31708C9.96409 6.4549 10.1263 6.64551 10.2297 6.86849C10.3332 7.09147 10.374 7.3384 10.3477 7.5828C10.3215 7.8272 10.2293 8.05985 10.0809 8.25582C9.93252 8.45179 9.7336 8.60367 9.50547 8.69518C8.94213 8.92018 8.16797 9.49685 8.16797 10.4577V10.666C8.16797 10.887 8.25577 11.099 8.41205 11.2553C8.56833 11.4116 8.78029 11.4993 9.0013 11.4993C9.22232 11.4993 9.43428 11.4116 9.59056 11.2553C9.74684 11.099 9.83463 10.887 9.83463 10.666C9.83463 10.4627 9.8763 10.361 10.0521 10.2743L10.1246 10.241C10.7753 9.97926 11.3147 9.49931 11.6502 8.88345C11.9858 8.26758 12.0967 7.55417 11.9639 6.8655C11.8311 6.17684 11.4629 5.55582 10.9223 5.10891C10.3818 4.662 9.70266 4.41704 9.0013 4.41602Z" fill="black"/>
</svg>
