<svg width="20" height="20" viewBox="0 0 20 20" fill="none" xmlns="http://www.w3.org/2000/svg">
<path d="M10.6505 2.08446C10.667 1.99462 10.7011 1.90893 10.7508 1.8323C10.8005 1.75568 10.8649 1.68963 10.9403 1.63797C11.0156 1.5863 11.1004 1.55003 11.1898 1.53124C11.2792 1.51244 11.3714 1.5115 11.4612 1.52846L11.8198 1.60313C15.5052 2.4538 18.7372 5.65113 18.7372 10.2711C18.7372 12.3205 17.8038 13.9311 16.7172 15.1551C15.9372 16.0338 15.0438 16.7458 14.3265 17.2911H16.5092C16.686 17.2911 16.8555 17.3614 16.9806 17.4864C17.1056 17.6114 17.1758 17.781 17.1758 17.9578C17.1758 18.1346 17.1056 18.3042 16.9806 18.4292C16.8555 18.5542 16.686 18.6245 16.5092 18.6245H12.5092C12.3323 18.6245 12.1628 18.5542 12.0377 18.4292C11.9127 18.3042 11.8425 18.1346 11.8425 17.9578V13.9578C11.8425 13.781 11.9127 13.6114 12.0377 13.4864C12.1628 13.3614 12.3323 13.2911 12.5092 13.2911C12.686 13.2911 12.8555 13.3614 12.9806 13.4864C13.1056 13.6114 13.1758 13.781 13.1758 13.9578V16.4191L13.4185 16.2351C14.1305 15.6951 14.9545 15.0458 15.6772 14.2325C16.6305 13.1605 17.3465 11.8645 17.3465 10.2725C17.3465 6.25646 14.4665 3.50847 11.2052 2.89513L11.0692 2.85513C10.9212 2.79461 10.7988 2.68484 10.7225 2.54441C10.6462 2.40397 10.6208 2.24149 10.6505 2.08446ZM1.14648 9.7298C1.14648 7.6818 2.07982 6.07113 3.16648 4.8458C3.94648 3.96847 4.83982 3.25647 5.55715 2.7098H3.37582C3.19901 2.7098 3.02944 2.63956 2.90441 2.51454C2.77939 2.38951 2.70915 2.21994 2.70915 2.04313C2.70915 1.86632 2.77939 1.69675 2.90441 1.57173C3.02944 1.4467 3.19901 1.37646 3.37582 1.37646H7.37582C7.55263 1.37646 7.7222 1.4467 7.84722 1.57173C7.97225 1.69675 8.04248 1.86632 8.04248 2.04313V6.04313C8.04248 6.21994 7.97225 6.38951 7.84722 6.51454C7.7222 6.63956 7.55263 6.7098 7.37582 6.7098C7.19901 6.7098 7.02944 6.63956 6.90441 6.51454C6.77939 6.38951 6.70915 6.21994 6.70915 6.04313V3.58313L6.46648 3.7658C5.75448 4.3058 4.93048 4.95513 4.20782 5.76847C3.25448 6.84047 2.53848 8.13646 2.53848 9.7298C2.53848 13.7885 5.48115 16.5538 8.78515 17.1258C8.95787 17.1663 9.1086 17.2712 9.20655 17.4192C9.30449 17.5671 9.34226 17.7468 9.31213 17.9216C9.282 18.0965 9.18624 18.2532 9.04443 18.3598C8.90262 18.4664 8.72546 18.5148 8.54915 18.4951C4.66648 17.8231 1.14648 14.5511 1.14648 9.7298Z" fill="black"/>
</svg>
