<svg width="20" height="20" viewBox="0 0 20 20" fill="none" xmlns="http://www.w3.org/2000/svg">
<path fill-rule="evenodd" clip-rule="evenodd" d="M9.81126 2.5C9.60494 2.49997 9.40104 2.5443 9.21335 2.62997C9.02567 2.71564 8.8586 2.84066 8.72346 2.99655C8.58832 3.15244 8.48827 3.33556 8.43009 3.53349C8.37191 3.73143 8.35696 3.93957 8.38626 4.14379C7.34297 4.45145 6.42727 5.08852 5.77606 5.95974C5.12484 6.83097 4.77309 7.88956 4.77338 8.97727V14.7348H4.05368C3.86281 14.7348 3.67975 14.8107 3.54478 14.9456C3.40981 15.0806 3.33398 15.2637 3.33398 15.4545C3.33398 15.6454 3.40981 15.8285 3.54478 15.9634C3.67975 16.0984 3.86281 16.1742 4.05368 16.1742H15.5688C15.7597 16.1742 15.9428 16.0984 16.0777 15.9634C16.2127 15.8285 16.2885 15.6454 16.2885 15.4545C16.2885 15.2637 16.2127 15.0806 16.0777 14.9456C15.9428 14.8107 15.7597 14.7348 15.5688 14.7348H14.8491V8.97727C14.8494 7.88956 14.4977 6.83097 13.8465 5.95974C13.1952 5.08852 12.2795 4.45145 11.2363 4.14379C11.2459 4.07662 11.2507 4.00848 11.2507 3.93939C11.2507 3.55764 11.099 3.19153 10.8291 2.92159C10.5591 2.65165 10.193 2.5 9.81126 2.5ZM11.2507 17.6136C11.2507 17.8045 11.1748 17.9876 11.0399 18.1225C10.9049 18.2575 10.7218 18.3333 10.531 18.3333H9.09156C8.90068 18.3333 8.71763 18.2575 8.58266 18.1225C8.44769 17.9876 8.37186 17.8045 8.37186 17.6136C8.37186 17.4228 8.44769 17.2397 8.58266 17.1047C8.71763 16.9698 8.90068 16.8939 9.09156 16.8939H10.531C10.7218 16.8939 10.9049 16.9698 11.0399 17.1047C11.1748 17.2397 11.2507 17.4228 11.2507 17.6136Z" fill="black"/>
</svg>
