<svg width="24" height="24" viewBox="0 0 24 24" fill="none" xmlns="http://www.w3.org/2000/svg">
<path d="M8.86523 20.2734H15.1357C15.164 20.2734 15.1922 20.281 15.2168 20.2949C15.2412 20.3088 15.2618 20.3285 15.2764 20.3525C15.2909 20.3767 15.299 20.4044 15.2998 20.4326C15.3006 20.4607 15.2943 20.4888 15.2812 20.5137C14.9623 21.1065 14.4888 21.6027 13.9111 21.9482C13.3335 22.2937 12.673 22.476 12 22.4766C11.3269 22.4759 10.6665 22.2928 10.0889 21.9473C9.51137 21.6018 9.03758 21.1063 8.71875 20.5137C8.70572 20.4888 8.69939 20.4607 8.7002 20.4326C8.70104 20.4044 8.70902 20.3767 8.72363 20.3525C8.73829 20.3283 8.75948 20.3088 8.78418 20.2949C8.79663 20.2879 8.80953 20.2819 8.82324 20.2783L8.86523 20.2734ZM12 1.52344C13.245 1.52349 14.3519 2.42837 14.7568 3.78418L14.7793 3.77734L14.7549 3.78516L14.7617 3.79297C14.7743 3.80764 14.7897 3.81969 14.8066 3.8291L14.8057 3.83008L14.8086 3.83105C15.9379 4.29568 16.7941 4.92372 17.4268 5.75098C18.2846 6.87075 18.7207 8.36526 18.7207 10.1895C18.7207 11.9558 18.8769 13.0301 19.1631 13.8193C19.4495 14.6091 19.8663 15.1128 20.3818 15.7363C20.4559 15.8257 20.5333 15.9208 20.6104 16.0137C20.8085 16.253 20.9339 16.5442 20.9717 16.8525C21.0094 17.161 20.9578 17.4738 20.8232 17.7539C20.5372 18.3519 19.9338 18.7255 19.2422 18.7256H4.7627C4.11109 18.7255 3.53664 18.3965 3.23242 17.8604L3.1748 17.751L3.12891 17.6445C3.02985 17.3929 2.99506 17.1202 3.02832 16.8506C3.06639 16.5426 3.19158 16.2516 3.38965 16.0127C3.46738 15.9172 3.54411 15.8249 3.61914 15.7344C4.13504 15.1116 4.5516 14.609 4.83789 13.8193C5.12399 13.0301 5.27929 11.9555 5.2793 10.1885C5.2793 8.58866 5.59966 7.26971 6.24805 6.21582C6.8965 5.16206 7.87481 4.37053 9.19238 3.82812L9.19434 3.82715C9.21078 3.81796 9.22572 3.80603 9.23828 3.79199L9.24023 3.79395L9.24316 3.7832C9.64807 2.42869 10.7549 1.52344 12 1.52344Z" fill="#838C96" stroke="#838C96" stroke-width="0.046875"/>
</svg>
