<svg width="20" height="20" viewBox="0 0 20 20" fill="none" xmlns="http://www.w3.org/2000/svg">
<path d="M16.2586 4.87484L11.3086 2.0165C10.5003 1.54984 9.50026 1.54984 8.68359 2.0165L3.74193 4.87484C2.93359 5.3415 2.43359 6.20817 2.43359 7.14984V12.8498C2.43359 13.7832 2.93359 14.6498 3.74193 15.1248L8.69193 17.9832C9.50026 18.4498 10.5003 18.4498 11.3169 17.9832L16.2669 15.1248C17.0753 14.6582 17.5753 13.7915 17.5753 12.8498V7.14984C17.5669 6.20817 17.0669 5.34984 16.2586 4.87484ZM10.0003 6.1165C11.0753 6.1165 11.9419 6.98317 11.9419 8.05817C11.9419 9.13317 11.0753 9.99984 10.0003 9.99984C8.92526 9.99984 8.05859 9.13317 8.05859 8.05817C8.05859 6.9915 8.92526 6.1165 10.0003 6.1165ZM12.2336 13.8832H7.76693C7.09193 13.8832 6.70026 13.1332 7.07526 12.5748C7.64193 11.7332 8.74193 11.1665 10.0003 11.1665C11.2586 11.1665 12.3586 11.7332 12.9253 12.5748C13.3003 13.1248 12.9003 13.8832 12.2336 13.8832Z" fill="black"/>
</svg>
