<svg width="20" height="21" viewBox="0 0 20 21" fill="none" xmlns="http://www.w3.org/2000/svg">
<path d="M5 8.83341V7.16675C5 4.40841 5.83333 2.16675 10 2.16675C14.1667 2.16675 15 4.40841 15 7.16675V8.83341" stroke="#838C96" stroke-width="1.25" stroke-linecap="round" stroke-linejoin="round"/>
<path d="M9.99935 15.9167C11.1499 15.9167 12.0827 14.9839 12.0827 13.8333C12.0827 12.6827 11.1499 11.75 9.99935 11.75C8.84876 11.75 7.91602 12.6827 7.91602 13.8333C7.91602 14.9839 8.84876 15.9167 9.99935 15.9167Z" stroke="#838C96" stroke-width="1.25" stroke-linecap="round" stroke-linejoin="round"/>
<path d="M14.166 18.8333H5.83268C2.49935 18.8333 1.66602 17.9999 1.66602 14.6666V12.9999C1.66602 9.66659 2.49935 8.83325 5.83268 8.83325H14.166C17.4993 8.83325 18.3327 9.66659 18.3327 12.9999V14.6666C18.3327 17.9999 17.4993 18.8333 14.166 18.8333Z" stroke="#838C96" stroke-width="1.25" stroke-linecap="round" stroke-linejoin="round"/>
</svg>
