<svg width="24" height="24" viewBox="0 0 24 24" fill="none" xmlns="http://www.w3.org/2000/svg">
<path d="M19.8296 15.2998L15.2996 19.8298C13.4396 21.6898 10.4196 21.6898 8.54962 19.8298L4.15962 15.4398C2.29962 13.5798 2.29962 10.5598 4.15962 8.6898L8.69962 4.1698C9.64962 3.2198 10.9596 2.7098 12.2996 2.7798L17.2996 3.0198C19.2996 3.1098 20.8896 4.6998 20.9896 6.6898L21.2296 11.6898C21.2896 13.0398 20.7796 14.3498 19.8296 15.2998Z" stroke="#336699" stroke-width="1.5" stroke-linecap="round" stroke-linejoin="round"/>
<path d="M14.5 12C13.1193 12 12 10.8807 12 9.5C12 8.11929 13.1193 7 14.5 7C15.8807 7 17 8.11929 17 9.5C17 10.8807 15.8807 12 14.5 12Z" stroke="#336699" stroke-width="1.5" stroke-linecap="round"/>
</svg>
