<svg width="25" height="25" viewBox="0 0 25 25" fill="none" xmlns="http://www.w3.org/2000/svg">
<path d="M21.6445 6.19727C18.3145 5.86727 14.9645 5.69727 11.6245 5.69727C9.64453 5.69727 7.66453 5.79727 5.68453 5.99727L3.64453 6.19727" stroke="white" stroke-width="1.5" stroke-linecap="round" stroke-linejoin="round"/>
<path d="M9.14453 5.1868L9.36453 3.8768C9.52453 2.9268 9.64453 2.2168 11.3345 2.2168H13.9545C15.6445 2.2168 15.7745 2.9668 15.9245 3.8868L16.1445 5.1868" stroke="white" stroke-width="1.5" stroke-linecap="round" stroke-linejoin="round"/>
<path d="M19.4949 9.35645L18.8449 19.4264C18.7349 20.9964 18.6449 22.2164 15.8549 22.2164H9.43492C6.64492 22.2164 6.55492 20.9964 6.44492 19.4264L5.79492 9.35645" stroke="white" stroke-width="1.5" stroke-linecap="round" stroke-linejoin="round"/>
<path d="M10.9746 16.7168H14.3046" stroke="white" stroke-width="1.5" stroke-linecap="round" stroke-linejoin="round"/>
<path d="M10.1445 12.7168H15.1445" stroke="white" stroke-width="1.5" stroke-linecap="round" stroke-linejoin="round"/>
</svg>
