<svg width="20" height="20" viewBox="0 0 20 20" fill="none" xmlns="http://www.w3.org/2000/svg">
<path d="M18.2868 12.0602L18.3043 12.1118L18.3235 12.1952L18.3319 12.2785V17.7085C18.3318 17.8598 18.2769 18.0059 18.1772 18.1198C18.0776 18.2336 17.9401 18.3075 17.7902 18.3277L17.7069 18.3335H2.29102C2.13998 18.3335 1.99406 18.2788 1.88024 18.1795C1.76642 18.0803 1.69239 17.9431 1.67185 17.7935L1.66602 17.7085V12.2918L1.66768 12.2485L1.67602 12.1768C1.68564 12.1334 1.69874 12.0907 1.71518 12.0493L4.01518 7.0335C4.05856 6.93868 4.12498 6.85623 4.20838 6.79364C4.29178 6.73105 4.38952 6.69033 4.49268 6.67517L4.58268 6.66934L6.69935 6.6685L6.04102 7.81017L5.98518 7.9185H4.98268L3.26435 11.6668H16.7243L15.0352 8.04517L15.7535 6.79767C15.8096 6.83989 15.8574 6.891 15.8968 6.951L15.941 7.03017L18.2868 12.0602ZM11.1368 1.7135L11.2135 1.751L15.5368 4.2535C15.8102 4.41184 15.9185 4.746 15.8027 5.031L15.7652 5.10767L13.426 9.16684H14.3743C14.5338 9.16522 14.6879 9.22462 14.805 9.3329C14.9221 9.44117 14.9934 9.59012 15.0043 9.74923C15.0151 9.90835 14.9647 10.0656 14.8634 10.1888C14.7621 10.312 14.6176 10.3918 14.4593 10.4118L14.3743 10.4177L12.706 10.4168V10.4193H9.30685L9.30435 10.4168H5.62435C5.46699 10.4154 5.31597 10.3546 5.20147 10.2466C5.08696 10.1387 5.01739 9.9915 5.00666 9.83449C4.99593 9.67749 5.04482 9.52222 5.14357 9.39968C5.24231 9.27715 5.38365 9.19638 5.53935 9.1735L5.62435 9.16767L7.14352 9.16684L6.99185 9.07934C6.86121 9.00362 6.7624 8.88316 6.71369 8.74024C6.66497 8.59731 6.66965 8.44158 6.72685 8.30184L6.76352 8.22517L10.361 1.9785C10.5193 1.70434 10.8527 1.59517 11.1368 1.71184M11.1285 3.14517L8.15685 8.3085L9.63852 9.16684H11.986L14.3735 5.02267L11.1285 3.14517Z" fill="black"/>
</svg>
